<svg width="74" height="76" viewBox="0 0 74 76" fill="none" xmlns="http://www.w3.org/2000/svg">
<path d="M73.2432 15.9588C72.8304 15.2971 72.1166 14.9022 71.3358 14.9022H56.9241C55.4995 6.45875 48.1543 0.000244141 39.3115 0.000244141C29.4508 0.000244141 21.4291 8.02197 21.4291 17.8826C21.4291 26.3424 27.6015 31.2467 29.9247 33.093C30.0871 33.2227 30.2332 33.3374 30.3569 33.4373C30.2958 34.4193 30.0067 36.6188 28.6223 37.589C27.6298 38.2864 26.1098 38.2893 24.1085 37.5919C22.35 36.9795 20.6915 35.9021 19.1789 34.388L10.3227 25.5318C9.68338 24.8955 8.81757 24.5646 7.90408 24.6317C7.00252 24.6988 6.17546 25.1548 5.63452 25.885C3.33365 28.9935 -0.381406 35.5936 0.566359 44.7389C0.572319 44.9937 0.734751 51.0722 3.01028 57.8601C6.08903 67.0427 11.5938 73.0437 18.9271 75.2149C20.7078 75.7439 22.666 76.0002 24.9132 76.0002H35.1329C39.7034 76.0002 44.1233 74.6769 47.9129 72.1749L48.2973 71.9201C58.9314 64.7701 62.7776 51.1006 57.2445 40.1238C55.6038 36.8692 53.3446 34.2762 50.5148 32.4016C51.0825 31.6922 51.7546 30.8071 52.449 29.8042H60.4052C62.1711 29.8042 63.8058 29.3497 65.1351 28.4928C69.1526 25.8984 72.0108 20.8853 73.358 18.127C73.6977 17.4281 73.656 16.6174 73.2432 15.9588ZM54.5845 41.465C59.4425 51.1035 56.0255 63.1339 46.5836 69.4806L46.2737 69.6878C42.9699 71.8679 39.1177 73.0199 35.1329 73.0199H24.9132C22.9566 73.0199 21.2771 72.8023 19.7735 72.3582C4.27546 67.7684 3.55271 44.9013 3.5393 44.5526C2.68691 36.288 5.98769 30.4196 8.03075 27.6583L6.83263 26.7716L8.21554 27.6389L17.0718 36.4937C18.9032 38.3281 20.9418 39.6439 23.1264 40.4054C26.086 41.4366 28.5075 41.3085 30.3345 40.0269C33.0064 38.1522 33.3343 34.5415 33.3507 33.0841C33.3611 32.4925 33.1301 31.9396 32.7024 31.5298C32.5057 31.3421 32.1868 31.0842 31.777 30.7579C29.5715 29.0054 24.408 24.9029 24.408 17.8811C24.408 9.66417 31.093 2.97915 39.31 2.97915C46.9681 2.97915 53.2895 8.78793 54.1151 16.23L54.1419 16.5265C54.1821 16.9736 54.2119 17.4236 54.2119 17.8811C54.2119 18.3416 54.1553 18.8259 54.0719 19.3191C54.0569 19.4086 54.0435 19.4965 54.0257 19.5874C53.823 20.6305 53.4609 21.7303 52.9751 22.8509C52.9661 22.8718 52.9572 22.8926 52.9482 22.9135C52.4475 24.0565 51.8261 25.2144 51.1362 26.3439C51.078 26.4378 51.0155 26.5332 50.9559 26.6286C49.9202 28.2901 48.7504 29.8817 47.6029 31.2511C47.2035 31.7265 47.0351 32.3494 47.1395 32.9589C47.2453 33.5803 47.6208 34.1213 48.1692 34.4461C50.8888 36.054 53.0481 38.4145 54.5845 41.465ZM63.5197 25.9878C62.6733 26.5347 61.5959 26.8238 60.4052 26.8238H54.3267C54.5457 26.4363 54.7573 26.0414 54.963 25.6391C54.9853 25.5973 55.0062 25.5556 55.0271 25.5139C55.188 25.1965 55.343 24.8746 55.492 24.5497C55.5337 24.4573 55.5784 24.365 55.6187 24.274C55.7349 24.0133 55.8437 23.7525 55.9495 23.4887C55.9987 23.3665 56.0523 23.2443 56.0985 23.1236C56.182 22.906 56.2565 22.687 56.3325 22.4679C56.3831 22.3189 56.4413 22.1684 56.4875 22.0224C56.5262 21.9031 56.5545 21.7824 56.5903 21.6617C56.7482 21.1268 56.8794 20.6022 56.9733 20.0926C56.9837 20.0404 56.9971 19.9868 57.006 19.9346C57.0508 19.6798 57.0791 19.4324 57.1074 19.185C57.1193 19.0882 57.1372 18.9913 57.1461 18.8944C57.1774 18.5517 57.1938 18.2134 57.1938 17.8841H70.1377C68.8978 20.2103 66.5314 24.0431 63.5197 25.9878Z" fill="#5D62B5"/>
<path d="M49.7427 14.9022C49.7427 10.7937 46.4001 7.45117 42.2917 7.45117C38.1832 7.45117 34.8407 10.7937 34.8407 14.9022C34.8407 19.0106 38.1832 22.3531 42.2917 22.3531C46.4001 22.3531 49.7427 19.0106 49.7427 14.9022ZM37.8211 14.9022C37.8211 12.4374 39.8269 10.4316 42.2917 10.4316C44.3481 10.4316 46.0678 11.8353 46.5864 13.7294C46.1885 13.5327 45.746 13.412 45.2721 13.412C43.6254 13.412 42.2917 14.7457 42.2917 16.3923C42.2917 17.5592 42.9682 18.5576 43.9443 19.0479C43.4317 19.252 42.8758 19.3727 42.2917 19.3727C39.8269 19.3727 37.8211 17.3669 37.8211 14.9022Z" fill="#5D62B5"/>
<path d="M39.1224 44.0414C36.7366 42.7494 33.8039 42.9685 30.3914 44.6986C26.9192 46.4615 22.9329 47.8295 18.206 48.8816L17.6413 49.0068C16.9528 49.1602 16.3686 49.6043 16.0423 50.2257C15.7159 50.8427 15.6772 51.5669 15.9365 52.2151C17.1808 55.3446 21.9986 65.5405 31.7951 65.5867C31.9159 65.5956 32.1453 65.6105 32.4583 65.6105C33.9142 65.6105 37.1807 65.311 39.8675 62.8984C42.4664 60.5632 43.7838 56.9555 43.7838 52.1764L43.7748 52.0169C43.748 51.78 43.1057 46.2022 39.1224 44.0414ZM37.899 60.6586C35.4104 62.9162 32.0455 62.6152 32.0202 62.6152L31.8622 62.6063C24.4544 62.6063 20.3743 54.9973 18.9765 51.7636C23.8971 50.6609 28.0741 49.2184 31.743 47.3556C34.2167 46.0994 36.2195 45.8595 37.6933 46.6552C40.1224 47.9636 40.7274 51.7189 40.8034 52.2673C40.7855 56.1016 39.8094 58.924 37.899 60.6586Z" fill="#5D62B5"/>
</svg>
